<svg width="16" height="16" viewBox="0 0 16 16" fill="none" xmlns="http://www.w3.org/2000/svg">
<path d="M8.66657 12.5275V5.08084L11.9199 8.33417C12.1799 8.59417 12.6066 8.59417 12.8666 8.33417C13.1266 8.07417 13.1266 7.65417 12.8666 7.39417L8.47323 3.00084C8.34868 2.876 8.17958 2.80585 8.00323 2.80585C7.82689 2.80585 7.65779 2.876 7.53323 3.00084L3.13323 7.3875C2.87323 7.6475 2.87323 8.0675 3.13323 8.3275C3.39323 8.5875 3.81323 8.5875 4.07323 8.3275L7.33323 5.08084V12.5275C7.33323 12.8942 7.63323 13.1942 7.9999 13.1942C8.36657 13.1942 8.66657 12.8942 8.66657 12.5275Z" fill="#2B2A3A"/>
</svg>
