<svg width="24" height="24" viewBox="0 0 24 24" fill="none" xmlns="http://www.w3.org/2000/svg">
<path d="M18.9999 9.00019H16.4199L19.7099 5.71019C19.8982 5.52188 20.004 5.26649 20.004 5.00019C20.004 4.73388 19.8982 4.47849 19.7099 4.29019C19.5216 4.10188 19.2662 3.99609 18.9999 3.99609C18.7336 3.99609 18.4782 4.10188 18.2899 4.29019L14.9999 7.57019V5.00019C14.9999 4.73497 14.8946 4.48062 14.707 4.29308C14.5195 4.10554 14.2652 4.00019 13.9999 4.00019C13.7347 4.00019 13.4804 4.10554 13.2928 4.29308C13.1053 4.48062 12.9999 4.73497 12.9999 5.00019V10.0002C12.9999 10.2654 13.1053 10.5198 13.2928 10.7073C13.4804 10.8948 13.7347 11.0002 13.9999 11.0002H18.9999C19.2652 11.0002 19.5195 10.8948 19.707 10.7073C19.8946 10.5198 19.9999 10.2654 19.9999 10.0002C19.9999 9.73497 19.8946 9.48062 19.707 9.29308C19.5195 9.10554 19.2652 9.00019 18.9999 9.00019ZM9.99994 13.0002H4.99994C4.73472 13.0002 4.48037 13.1055 4.29283 13.2931C4.1053 13.4806 3.99994 13.735 3.99994 14.0002C3.99994 14.2654 4.1053 14.5198 4.29283 14.7073C4.48037 14.8948 4.73472 15.0002 4.99994 15.0002H7.56994L4.28994 18.2902C4.19621 18.3831 4.12182 18.4937 4.07105 18.6156C4.02028 18.7375 3.99414 18.8682 3.99414 19.0002C3.99414 19.1322 4.02028 19.2629 4.07105 19.3848C4.12182 19.5066 4.19621 19.6172 4.28994 19.7102C4.3829 19.8039 4.4935 19.8783 4.61536 19.9291C4.73722 19.9798 4.86793 20.006 4.99994 20.006C5.13195 20.006 5.26266 19.9798 5.38452 19.9291C5.50638 19.8783 5.61698 19.8039 5.70994 19.7102L8.99994 16.4202V19.0002C8.99994 19.2654 9.1053 19.5198 9.29283 19.7073C9.48037 19.8948 9.73472 20.0002 9.99994 20.0002C10.2652 20.0002 10.5195 19.8948 10.707 19.7073C10.8946 19.5198 10.9999 19.2654 10.9999 19.0002V14.0002C10.9999 13.735 10.8946 13.4806 10.707 13.2931C10.5195 13.1055 10.2652 13.0002 9.99994 13.0002Z" fill="#8B94B3"/>
</svg>
