<svg width="23" height="21" viewBox="0 0 23 21" fill="none" xmlns="http://www.w3.org/2000/svg">
<path d="M10.4062 20.563C9.02292 20.563 7.72292 20.3005 6.50625 19.7755C5.28958 19.2505 4.23125 18.538 3.33125 17.638C2.43125 16.738 1.71875 15.6797 1.19375 14.463C0.66875 13.2463 0.40625 11.9463 0.40625 10.563C0.40625 9.17966 0.66875 7.87965 1.19375 6.66299C1.71875 5.44632 2.43125 4.38799 3.33125 3.48799C4.23125 2.58799 5.28958 1.87549 6.50625 1.35049C7.72292 0.825488 9.02292 0.562988 10.4062 0.562988C11.4896 0.562988 12.5146 0.721322 13.4812 1.03799C14.4479 1.35465 15.3396 1.79632 16.1562 2.36299L14.7063 3.83799C14.0729 3.43799 13.3979 3.12549 12.6813 2.90049C11.9646 2.67549 11.2063 2.56299 10.4062 2.56299C8.18958 2.56299 6.30208 3.34215 4.74375 4.90049C3.18542 6.45882 2.40625 8.34632 2.40625 10.563C2.40625 12.7797 3.18542 14.6672 4.74375 16.2255C6.30208 17.7838 8.18958 18.563 10.4062 18.563C10.9396 18.563 11.4563 18.513 11.9563 18.413C12.4563 18.313 12.9396 18.1713 13.4062 17.988L14.9062 19.513C14.2229 19.8463 13.5063 20.1047 12.7563 20.288C12.0063 20.4713 11.2229 20.563 10.4062 20.563ZM17.4062 18.563V15.563H14.4062V13.563H17.4062V10.563H19.4062V13.563H22.4062V15.563H19.4062V18.563H17.4062ZM9.00625 15.163L4.75625 10.913L6.15625 9.51299L9.00625 12.363L19.0063 2.33799L20.4062 3.73799L9.00625 15.163Z" fill="#34A2B1"/>
</svg>
