<svg width="14" height="14" viewBox="0 0 14 14" fill="none" xmlns="http://www.w3.org/2000/svg">
<path fill-rule="evenodd" clip-rule="evenodd" d="M6.99992 0.333313C3.31992 0.333313 0.333252 3.31998 0.333252 6.99998C0.333252 10.68 3.31992 13.6666 6.99992 13.6666C10.6799 13.6666 13.6666 10.68 13.6666 6.99998C13.6666 3.31998 10.6799 0.333313 6.99992 0.333313ZM6.99992 7.66665C6.63325 7.66665 6.33325 7.36665 6.33325 6.99998V4.33331C6.33325 3.96665 6.63325 3.66665 6.99992 3.66665C7.36659 3.66665 7.66659 3.96665 7.66659 4.33331V6.99998C7.66659 7.36665 7.36659 7.66665 6.99992 7.66665ZM6.33325 8.99998V10.3333H7.66659V8.99998H6.33325Z" fill="#EB4049"/>
</svg>
